<?xml version="1.0" standalone="no"?>
<svg viewBox="0 0 200 200" xmlns="http://www.w3.org/2000/svg">
  <path fill="#FF0066" d="M46.7,-65.1C61.3,-63.4,74.2,-51.6,80.2,-37C86.3,-22.5,85.4,-5.2,79.4,8.9C73.4,22.9,62.3,33.6,51.9,44.3C41.6,55,32,65.6,18.9,73.8C5.7,82,-10.9,87.8,-20.2,79.9C-29.4,72.1,-31.4,50.5,-38.8,36.6C-46.3,22.7,-59.3,16.5,-62.9,7.6C-66.5,-1.4,-60.7,-13.3,-51,-18.6C-41.2,-23.9,-27.5,-22.7,-18.4,-26.9C-9.2,-31,-4.6,-40.4,5.7,-49.4C16.1,-58.3,32.2,-66.8,46.7,-65.1Z" transform="translate(100 100)" />
</svg>
